TPB AFK: The Pirate Bay Away From Keyboard (2013)

Director: Simon Klose

TPB AFK: The Pirate Bay Away From Keyboard is a documentary film released on February 8 2013, directed by Simon Klose, based on the lives of the three founders of The Pirate Bay - Peter Sunde, Fredrik Neij and Gottfrid Svartholm. Filming began in summer 2008, and concluded on 25 August 2012.

For those who wish to support the creators, apart from online donations, they can buy the DVD version and digital download. The pre-order price of the DVD is $23 and a digital download is $10, which comes with deleted scenes and bonus material. Pre-orders can be made via the official movie website. TPB AFK's cinema premiere took place at the Berlin International Film Festival on 8 February 2013, opening the festival's documentary section, and was released online for worldwide free download (or purchase) at exactly the same time on YouTube and on The Pirate Bay.

Media Info:
TPB AFK 2013 [Handheld][big_dad_e].mp4
Format                                   : MPEG-4
Format profile                           : Base Media / Version 2
Codec ID                                 : mp42
File size                                : 359 MiB
Duration                                 : 1h 22mn
Overall bit rate mode                    : Variable
Overall bit rate                         : 611 Kbps
Encoded date                             : UTC 2013-02-09 08:39:55
Tagged date                              : UTC 2013-02-09 08:41:39
Writing application                      : mp4creator 1.4.4

Video
ID                                       : 1
Format                                   : MPEG-4 Visual
Format profile                           : Simple@L3
Format settings, BVOP                    : No
Format settings, QPel                    : No
Format settings, GMC                     : No warppoints
Format settings, Matrix                  : Default (H.263)
Codec ID                                 : 20
Duration                                 : 1h 22mn
Bit rate mode                            : Variable
Bit rate                                 : 510 Kbps
Maximum bit rate                         : 2 101 Kbps
Width                                    : 320 pixels
Height                                   : 240 pixels
Display aspect ratio                     : 4:3
Frame rate mode                          : Constant
Frame rate                               : 25.000 fps
Color space                              : YUV
Chroma subsampling                       : 4:2:0
Bit depth                                : 8 bits
Scan type                                : Progressive
Compression mode                         : Lossy
Bits/(Pixel*Frame)                       : 0.266
Stream size                              : 300 MiB (84%)
Language                                 : English
Encoded date                             : UTC 2013-02-09 08:39:55
Tagged date                              : UTC 2013-02-09 08:41:16

Audio
ID                                       : 2
Format                                   : AAC
Format/Info                              : Advanced Audio Codec
Format profile                           : LC
Codec ID                                 : 40
Duration                                 : 1h 22mn
Source duration                          : 1h 22mn
Bit rate mode                            : Variable
Bit rate                                 : 98.4 Kbps
Maximum bit rate                         : 142 Kbps
Channel(s)                               : 2 channels
Channel positions                        : Front: L R
Sampling rate                            : 44.1 KHz
Compression mode                         : Lossy
Stream size                              : 57.8 MiB (16%)
Source stream size                       : 57.8 MiB (16%)
Language                                 : English
Encoded date                             : UTC 2013-02-09 08:41:22
Tagged date                              : UTC 2013-02-09 08:41:39

Encoded for iPod/Handheld
Swedish Language 

Requests?  Find me on SuprBay.

For reporting bad or suspicious torrents:  
http://forum.suprbay.org/forumdisplay.php?fid=29

For more of my torrents: 
https://thepiratebay.se/user/big_dad_e/


All torrents scanned with:
Norton Anti-virus
Malwarebytes' Anti-malware
 
http://www.pirate-party.us/

ALWAYS SEED & THANKS SEEDERS!			